<?xml version="1.0" encoding="UTF-8" standalone="no"?><!DOCTYPE svg PUBLIC "-//W3C//DTD SVG 1.1//EN" "http://www.w3.org/Graphics/SVG/1.1/DTD/svg11.dtd"><svg width="100%" height="100%" viewBox="0 0 512 256" version="1.1" xmlns="http://www.w3.org/2000/svg" xmlns:xlink="http://www.w3.org/1999/xlink" xml:space="preserve" style="fill-rule:evenodd;clip-rule:evenodd;stroke-linejoin:round;stroke-miterlimit:1.41421;"><rect id="Bob" x="0" y="0" width="512" height="256" style="fill:none;"/><path d="M112.275,64.243l8.091,175.185c0.225,7.119 -5.907,12.9 -13.246,12.486l-19.326,-1.335c-7.095,-0.156 -13.194,-6.626 -13.175,-13.977l1.694,-174.142c0,0 0.02,-7.351 -0.216,-10.55c0.03,-11.271 -12.2,-12.451 -12.2,-12.451c-31.559,-1.536 -53.636,19.763 -53.636,19.763l-5.857,-5.721c33.423,-54.479 69.865,-49.726 82.097,-49.036c11.253,0.635 22.993,1.297 25.931,1.463c6.361,0.358 12.199,12.941 21.983,13.983c4.404,0.248 8.323,-1.491 10.531,-3.572c0.257,-4.642 4.914,-7.565 9.072,-7.085l5.626,0.562c5.381,0.305 9.528,4.705 9.758,10.354l0.172,26.722c-0.014,5.39 -4.185,9.322 -9.811,9.249l-6.116,-0.59c-4.159,0.01 -8.8,-2.947 -9.281,-5.915c0.744,-3.634 -4.384,-7.599 -12.458,-7.81c-11.986,-0.921 -19.834,5.988 -19.605,12.126c-0.251,2.192 -0.028,10.291 -0.028,10.291Zm71.323,-47.036c-1.527,-0.57 -3.237,-0.349 -4.569,0.591c-1.332,0.94 -2.113,2.477 -2.087,4.107c0.032,10.324 0.017,26.855 -0.044,34.118c3.218,3.695 8.416,10.303 8.416,21.485c0,11.489 -3.717,20.183 -11.152,26.081c-7.435,5.899 -19.14,8.848 -35.115,8.848c0,0 -6.741,0.123 -11.866,0.217c-1.478,0.027 -2.88,0.66 -3.878,1.751c-0.998,1.09 -1.504,2.543 -1.4,4.018c0.392,5.54 0.981,13.885 1.351,19.116c0.192,2.717 2.447,4.826 5.171,4.836c6.943,0.025 18.917,0.067 18.917,0.067c23.103,0 39.14,3.437 48.111,10.31c9.216,6.975 13.825,15.592 13.825,25.851c0,10.566 -4.793,19.285 -14.378,26.158c-9.094,6.36 -23.349,9.54 -42.766,9.54c0,0 -13.784,0.088 -21.157,0.136c-1.174,0.007 -2.291,0.5 -3.087,1.362c-0.796,0.862 -1.199,2.015 -1.114,3.185c0.432,5.905 1.189,16.269 1.671,22.877c0.253,3.455 3.128,6.129 6.592,6.131c5.489,0.003 12.671,0.008 12.671,0.008c19.417,0 35.577,-1.488 48.48,-4.463c11.797,-3.077 22.427,-8.565 31.89,-16.464c15.729,-12.823 23.594,-28.518 23.594,-47.086c0,-14.156 -4.424,-26.568 -13.272,-37.237c-8.725,-10.771 -20.645,-18.311 -35.76,-22.619c15.606,-11.797 23.41,-26.21 23.41,-43.239c0,-9.335 -2.396,-18.567 -7.189,-27.697c-4.67,-9.027 -10.999,-16.567 -18.986,-22.62c-6.061,-4.505 -9.699,-7.229 -16.279,-9.368Zm75.816,158.509c0,-7.484 1.509,-14.474 4.529,-20.973c3.019,-6.498 7.22,-12.143 12.603,-16.935c5.383,-4.792 11.783,-8.566 19.2,-11.323c7.417,-2.757 15.524,-4.136 24.32,-4.136c8.665,0 16.706,1.346 24.123,4.037c7.418,2.691 13.851,6.433 19.299,11.225c5.448,4.792 9.682,10.502 12.701,17.132c3.02,6.63 4.53,13.949 4.53,21.957c0,8.008 -1.543,15.327 -4.628,21.957c-3.085,6.63 -7.319,12.341 -12.702,17.132c-5.382,4.792 -11.848,8.501 -19.397,11.127c-7.548,2.625 -15.721,3.938 -24.517,3.938c-8.664,0 -16.673,-1.313 -24.024,-3.938c-7.352,-2.626 -13.687,-6.368 -19.003,-11.225c-5.317,-4.857 -9.486,-10.667 -12.505,-17.428c-3.02,-6.761 -4.529,-14.277 -4.529,-22.547Zm159.082,-112.05c1.353,0 2.65,0.538 3.607,1.494c0.957,0.957 1.495,2.255 1.495,3.608c0,16.501 0,67.366 0,67.366c8.402,-8.796 18.904,-13.194 31.507,-13.194c7.483,0 14.343,1.411 20.579,4.234c6.236,2.822 11.553,6.63 15.951,11.421c4.398,4.792 7.844,10.437 10.338,16.936c2.494,6.498 3.742,13.424 3.742,20.775c0,7.483 -1.28,14.507 -3.84,21.071c-2.56,6.564 -6.138,12.275 -10.733,17.132c-4.595,4.858 -10.01,8.698 -16.246,11.521c-6.236,2.822 -12.964,4.233 -20.185,4.233c-13.128,0 -23.499,-4.791 -31.113,-14.375c0,0 0,3.157 0,6.123c0,1.353 -0.538,2.651 -1.495,3.607c-0.957,0.957 -2.254,1.495 -3.607,1.495c-6.774,0 -18.666,0 -25.44,0c-1.353,0 -2.651,-0.538 -3.607,-1.495c-0.957,-0.956 -1.495,-2.254 -1.495,-3.607c0,-24.383 0,-128.861 0,-153.243c0,-1.353 0.538,-2.651 1.495,-3.608c0.956,-0.956 2.254,-1.494 3.607,-1.494c6.774,0 18.666,0 25.44,0Zm-121.47,112.443c0,3.414 0.624,6.532 1.871,9.354c1.247,2.823 2.888,5.284 4.923,7.385c2.035,2.1 4.464,3.741 7.286,4.923c2.823,1.182 5.809,1.772 8.96,1.772c3.151,0 6.138,-0.59 8.96,-1.772c2.823,-1.182 5.251,-2.823 7.286,-4.923c2.035,-2.101 3.676,-4.562 4.923,-7.385c1.248,-2.822 1.871,-5.875 1.871,-9.157c0,-3.15 -0.623,-6.137 -1.871,-8.96c-1.247,-2.822 -2.888,-5.284 -4.923,-7.384c-2.035,-2.101 -4.463,-3.742 -7.286,-4.923c-2.822,-1.182 -5.809,-1.773 -8.96,-1.773c-3.151,0 -6.137,0.591 -8.96,1.773c-2.822,1.181 -5.251,2.822 -7.286,4.923c-2.035,2.1 -3.676,4.529 -4.923,7.286c-1.247,2.757 -1.871,5.711 -1.871,8.861Zm171.47,0.788c0,-3.151 -0.591,-6.137 -1.772,-8.96c-1.182,-2.822 -2.823,-5.284 -4.923,-7.385c-2.101,-2.1 -4.53,-3.774 -7.286,-5.021c-2.757,-1.247 -5.777,-1.871 -9.059,-1.871c-3.151,0 -6.105,0.591 -8.862,1.772c-2.756,1.182 -5.152,2.823 -7.187,4.924c-2.035,2.1 -3.676,4.562 -4.923,7.384c-1.248,2.823 -1.871,5.809 -1.871,8.96c0,3.151 0.591,6.105 1.772,8.862c1.182,2.757 2.823,5.153 4.923,7.187c2.101,2.035 4.562,3.676 7.385,4.924c2.822,1.247 5.809,1.87 8.96,1.87c3.151,0 6.105,-0.59 8.862,-1.772c2.756,-1.182 5.152,-2.823 7.187,-4.923c2.035,-2.101 3.676,-4.529 4.923,-7.286c1.247,-2.757 1.871,-5.645 1.871,-8.665Z" style="fill:#f60;"/></svg>