<?xml version="1.0" encoding="UTF-8" standalone="no"?><!DOCTYPE svg PUBLIC "-//W3C//DTD SVG 1.1//EN" "http://www.w3.org/Graphics/SVG/1.1/DTD/svg11.dtd"><svg width="100%" height="100%" viewBox="0 0 256 256" version="1.1" xmlns="http://www.w3.org/2000/svg" xmlns:xlink="http://www.w3.org/1999/xlink" xml:space="preserve" style="fill-rule:evenodd;clip-rule:evenodd;stroke-linejoin:round;stroke-miterlimit:1.41421;"><rect id="B" x="0" y="0" width="256" height="256" style="fill:none;"/><path id="B1" d="M112.236,64.243l8.091,175.185c0.225,7.119 -5.907,12.9 -13.246,12.486l-19.326,-1.335c-7.095,-0.156 -13.195,-6.626 -13.175,-13.977l1.694,-174.142c0,0 0.02,-7.351 -0.216,-10.55c0.03,-11.271 -12.201,-12.451 -12.201,-12.451c-31.558,-1.536 -53.635,19.763 -53.635,19.763l-5.857,-5.721c33.422,-54.479 69.865,-49.726 82.097,-49.036c11.253,0.635 22.993,1.297 25.931,1.463c6.361,0.358 12.199,12.941 21.983,13.983c4.404,0.248 8.323,-1.491 10.531,-3.572c0.257,-4.642 4.914,-7.565 9.072,-7.085l5.626,0.562c5.38,0.305 9.528,4.705 9.758,10.354l0.172,26.722c-0.014,5.39 -4.186,9.322 -9.812,9.249l-6.115,-0.59c-4.159,0.01 -8.8,-2.947 -9.282,-5.915c0.744,-3.634 -4.383,-7.599 -12.457,-7.81c-11.986,-0.921 -19.835,5.988 -19.605,12.126c-0.251,2.192 -0.028,10.291 -0.028,10.291Zm71.323,-47.036c-1.527,-0.57 -3.237,-0.349 -4.569,0.591c-1.332,0.94 -2.113,2.477 -2.087,4.107c0.032,10.324 0.016,26.855 -0.044,34.118c3.218,3.695 8.416,10.303 8.416,21.485c0,11.489 -3.717,20.183 -11.152,26.081c-7.435,5.899 -19.14,8.848 -35.116,8.848c0,0 -6.74,0.123 -11.865,0.217c-1.478,0.027 -2.88,0.66 -3.878,1.751c-0.998,1.09 -1.504,2.543 -1.4,4.018c0.391,5.54 0.981,13.885 1.35,19.116c0.192,2.717 2.448,4.826 5.172,4.836c6.943,0.025 18.916,0.067 18.916,0.067c23.103,0 39.14,3.437 48.111,10.31c9.217,6.975 13.825,15.592 13.825,25.851c0,10.566 -4.792,19.285 -14.378,26.158c-9.094,6.36 -23.349,9.54 -42.765,9.54c0,0 -13.784,0.088 -21.158,0.136c-1.173,0.007 -2.29,0.5 -3.086,1.362c-0.796,0.862 -1.2,2.015 -1.114,3.185c0.431,5.905 1.188,16.269 1.671,22.877c0.253,3.455 3.128,6.129 6.592,6.131c5.489,0.003 12.671,0.008 12.671,0.008c19.416,0 35.576,-1.488 48.48,-4.463c11.797,-3.077 22.427,-8.565 31.889,-16.464c15.73,-12.823 23.595,-28.518 23.595,-47.086c0,-14.156 -4.424,-26.568 -13.272,-37.237c-8.725,-10.771 -20.645,-18.311 -35.761,-22.619c15.607,-11.797 23.411,-26.21 23.411,-43.239c0,-9.335 -2.397,-18.567 -7.189,-27.697c-4.67,-9.027 -10.999,-16.567 -18.987,-22.62c-6.06,-4.505 -9.699,-7.229 -16.278,-9.368Z" style="fill:#f60;"/></svg>