<?xml version="1.0" encoding="UTF-8" standalone="no"?><!DOCTYPE svg PUBLIC "-//W3C//DTD SVG 1.1//EN" "http://www.w3.org/Graphics/SVG/1.1/DTD/svg11.dtd"><svg width="100%" height="100%" viewBox="0 0 256 256" version="1.1" xmlns="http://www.w3.org/2000/svg" xmlns:xlink="http://www.w3.org/1999/xlink" xml:space="preserve" style="fill-rule:evenodd;clip-rule:evenodd;stroke-linejoin:round;stroke-miterlimit:1.41421;"><path id="hammer" d="M136.475,76.633l27.736,30.081l-124.048,144.713c-5.394,6.097 -15.025,6.097 -20.804,0l-15.025,-16.26c-5.779,-5.691 -5.779,-15.854 0,-21.951l132.141,-136.583Zm116.346,30.894l-20.803,22.358c-4.238,4.471 -10.789,4.471 -15.411,0l-4.623,-5.285c-3.467,-3.252 -5.008,-9.349 -3.082,-12.195c3.468,-2.439 2.312,-9.756 -4.237,-16.26c-9.247,-10.163 -21.189,-10.569 -25.811,-5.285c-1.926,1.626 -8.09,8.537 -8.09,8.537l-28.509,-29.675l4.623,-4.878c0,0 1.156,-1.219 3.468,-4.065c8.86,-9.349 -0.386,-19.918 -0.386,-19.918c-25.041,-26.017 -60.097,-25.61 -60.097,-25.61l-0.386,-9.35c70.502,-19.105 97.083,13.415 106.714,23.578c8.861,9.349 18.105,19.103 20.418,21.544c5.009,5.285 0,20.325 7.32,28.862c3.468,3.658 8.091,5.284 11.558,5.284c3.852,-3.658 10.016,-2.439 13.099,1.22l4.237,4.878c4.236,4.471 4.236,11.382 -0.002,16.26l0,0Z" style="fill:#f60;fill-rule:nonzero;"/></svg>